<svg width="646" height="480" viewBox="0 0 646 480" fill="none" xmlns="http://www.w3.org/2000/svg">
<g style="mix-blend-mode:multiply">
<path d="M524.148 381.786C524.362 381.714 524.597 381.729 524.8 381.828C525.003 381.928 525.158 382.104 525.232 382.318L531.331 400.236C532.171 396.313 533.121 392.221 534.182 387.96C539.182 368.018 547.488 342.194 561.192 313.555C561.136 313.48 561.094 313.396 561.065 313.307L553.932 292.351C553.896 292.245 553.882 292.132 553.889 292.021C553.896 291.909 553.925 291.8 553.975 291.699C554.024 291.598 554.093 291.509 554.177 291.435C554.262 291.361 554.36 291.304 554.466 291.268C554.572 291.232 554.684 291.217 554.796 291.224C554.908 291.232 555.017 291.261 555.118 291.31C555.218 291.36 555.308 291.429 555.382 291.513C555.456 291.597 555.512 291.695 555.548 291.801L562.224 311.402C573.668 287.85 587.298 265.423 602.933 244.417C603 244.327 603.084 244.251 603.18 244.194C603.276 244.136 603.383 244.098 603.494 244.082C603.605 244.066 603.718 244.072 603.826 244.099C603.935 244.126 604.037 244.175 604.127 244.242C604.217 244.309 604.293 244.393 604.351 244.489C604.408 244.585 604.446 244.692 604.462 244.803C604.479 244.914 604.473 245.027 604.445 245.136C604.418 245.244 604.37 245.346 604.303 245.436C594.713 258.327 585.874 271.759 577.827 285.665L593.023 280.867C593.238 280.804 593.469 280.827 593.667 280.932C593.865 281.037 594.013 281.216 594.081 281.43C594.148 281.644 594.129 281.875 594.027 282.075C593.926 282.275 593.75 282.427 593.537 282.498L576.606 287.868H576.587C562.865 311.877 551.619 337.219 543.023 363.503L565.279 358.265C565.389 358.239 565.502 358.235 565.613 358.253C565.724 358.271 565.83 358.311 565.926 358.37C566.021 358.429 566.104 358.506 566.17 358.597C566.236 358.688 566.283 358.792 566.309 358.901C566.335 359.01 566.339 359.124 566.32 359.235C566.302 359.346 566.263 359.452 566.204 359.547C566.144 359.643 566.067 359.726 565.976 359.792C565.885 359.857 565.782 359.905 565.672 359.93L542.934 365.281C542.869 365.295 542.803 365.303 542.737 365.303C542.642 365.302 542.547 365.286 542.456 365.256C539.789 373.582 537.621 381.316 535.863 388.318C534.533 393.621 533.392 398.675 532.412 403.449C532.433 403.632 532.395 403.818 532.303 403.978C526.378 433.066 526.453 451.598 526.455 451.815C526.456 451.927 526.435 452.038 526.393 452.142C526.351 452.246 526.288 452.341 526.21 452.421C526.131 452.501 526.037 452.564 525.934 452.608C525.831 452.652 525.72 452.674 525.607 452.675C525.382 452.675 525.166 452.586 525.006 452.428C524.846 452.27 524.755 452.055 524.752 451.83C524.752 451.611 524.67 432.87 530.659 403.528L523.628 382.878C523.591 382.772 523.574 382.66 523.58 382.548C523.585 382.436 523.613 382.326 523.661 382.224C523.71 382.123 523.777 382.032 523.861 381.957C523.944 381.882 524.042 381.824 524.148 381.786Z" fill="#DCDCDC"/>
</g>
<g style="mix-blend-mode:multiply">
<path d="M554.601 454.94C554.666 454.821 561.222 442.86 575.575 427.49C585.265 417.17 595.962 407.842 607.505 399.645C607.497 399.597 607.497 399.549 607.505 399.501L609.596 387.841C609.604 387.78 609.625 387.722 609.657 387.669C609.689 387.617 609.731 387.571 609.781 387.535C609.831 387.499 609.887 387.474 609.947 387.46C610.007 387.447 610.069 387.445 610.129 387.456C610.19 387.467 610.247 387.49 610.299 387.523C610.35 387.557 610.394 387.6 610.428 387.651C610.462 387.702 610.486 387.76 610.498 387.82C610.509 387.88 610.509 387.942 610.496 388.002L608.539 398.914C620.007 390.854 632.206 383.889 644.977 378.11C645.031 378.083 645.091 378.068 645.152 378.064C645.213 378.061 645.274 378.07 645.332 378.091C645.389 378.112 645.442 378.144 645.487 378.185C645.532 378.227 645.568 378.277 645.593 378.332C645.618 378.388 645.632 378.448 645.634 378.509C645.635 378.57 645.625 378.631 645.603 378.688C645.58 378.745 645.547 378.797 645.504 378.84C645.462 378.884 645.411 378.919 645.354 378.943C637.524 382.492 629.905 386.489 622.534 390.914L630.89 392.607C630.952 392.615 631.011 392.637 631.064 392.669C631.118 392.702 631.164 392.745 631.2 392.796C631.236 392.847 631.261 392.904 631.274 392.965C631.287 393.026 631.287 393.089 631.274 393.151C631.262 393.212 631.237 393.27 631.202 393.321C631.166 393.372 631.12 393.416 631.067 393.448C631.014 393.481 630.955 393.503 630.893 393.512C630.832 393.521 630.769 393.518 630.708 393.502L621.39 391.615C608.736 399.3 596.896 408.252 586.054 418.334L597.831 421.65C597.945 421.686 598.04 421.764 598.097 421.869C598.153 421.974 598.167 422.097 598.134 422.211C598.102 422.326 598.026 422.423 597.923 422.483C597.82 422.543 597.698 422.56 597.582 422.53L585.549 419.142C585.515 419.132 585.483 419.118 585.452 419.099C585.408 419.077 585.368 419.046 585.335 419.008C581.929 422.212 578.906 425.273 576.268 428.095C561.983 443.385 555.471 455.266 555.407 455.383C555.378 455.436 555.339 455.483 555.292 455.521C555.246 455.559 555.192 455.587 555.134 455.604C555.076 455.621 555.016 455.627 554.956 455.62C554.896 455.614 554.838 455.596 554.785 455.567C554.731 455.539 554.684 455.5 554.645 455.452C554.606 455.405 554.578 455.351 554.561 455.293C554.544 455.234 554.538 455.173 554.545 455.112C554.552 455.052 554.571 454.993 554.601 454.94Z" fill="#DCDCDC"/>
</g>
<g style="mix-blend-mode:multiply">
<path d="M133.854 386.952C133.747 386.916 133.634 386.9 133.521 386.908C133.408 386.915 133.298 386.944 133.196 386.994C133.095 387.044 133.004 387.113 132.93 387.198C132.855 387.283 132.798 387.382 132.762 387.489L126.624 405.522C125.779 401.57 124.822 397.452 123.752 393.165C118.72 373.094 110.362 347.101 96.5685 318.276C96.6243 318.201 96.6671 318.117 96.6953 318.028L103.875 296.937C103.914 296.83 103.93 296.716 103.924 296.602C103.918 296.488 103.89 296.377 103.84 296.274C103.79 296.171 103.721 296.079 103.636 296.004C103.55 295.928 103.451 295.87 103.343 295.834C103.235 295.797 103.12 295.782 103.007 295.79C102.893 295.798 102.782 295.828 102.68 295.879C102.578 295.93 102.487 296.001 102.413 296.088C102.338 296.174 102.282 296.275 102.247 296.383L95.5342 316.113C84.0162 292.407 70.2986 269.834 54.5619 248.691C54.4236 248.514 54.2215 248.398 53.9989 248.368C53.7763 248.338 53.5507 248.396 53.3705 248.53C53.1903 248.664 53.0698 248.864 53.0345 249.085C52.9993 249.307 53.0522 249.534 53.182 249.717C62.8335 262.692 71.7305 276.211 79.829 290.207L64.5364 285.377C64.4287 285.343 64.3153 285.33 64.2027 285.34C64.0901 285.349 63.9806 285.381 63.8803 285.433C63.78 285.485 63.6908 285.557 63.618 285.643C63.5453 285.73 63.4903 285.83 63.4562 285.937C63.4221 286.045 63.4095 286.159 63.4192 286.271C63.4289 286.384 63.4607 286.493 63.5128 286.594C63.5649 286.694 63.6362 286.783 63.7227 286.856C63.8092 286.928 63.9091 286.983 64.0168 287.018L81.0695 292.403H81.092C94.9014 316.568 106.218 342.075 114.867 368.53L92.4638 363.259C92.3519 363.227 92.2349 363.219 92.1196 363.234C92.0043 363.248 91.8932 363.287 91.793 363.346C91.6929 363.405 91.6058 363.483 91.5369 363.577C91.468 363.67 91.4188 363.777 91.3922 363.89C91.3656 364.003 91.3623 364.121 91.3824 364.235C91.4024 364.35 91.4454 364.459 91.5089 364.556C91.5723 364.654 91.6548 364.737 91.7514 364.802C91.848 364.866 91.9567 364.911 92.0709 364.932L114.956 370.317C115.021 370.334 115.088 370.342 115.155 370.342C115.251 370.342 115.346 370.325 115.436 370.292C118.121 378.673 120.304 386.453 122.072 393.506C123.413 398.843 124.573 403.92 125.552 408.736C125.529 408.921 125.568 409.108 125.662 409.268C131.629 438.536 131.549 457.197 131.549 457.413C131.547 457.526 131.568 457.638 131.61 457.743C131.652 457.848 131.714 457.944 131.793 458.024C131.873 458.105 131.967 458.169 132.071 458.213C132.175 458.257 132.286 458.28 132.399 458.281C132.626 458.282 132.843 458.193 133.004 458.033C133.165 457.874 133.256 457.657 133.257 457.431C133.257 457.212 133.342 438.347 127.315 408.816L134.391 388.031C134.461 387.817 134.443 387.584 134.343 387.382C134.242 387.18 134.067 387.026 133.854 386.952Z" fill="#DCDCDC"/>
</g>
<g style="mix-blend-mode:multiply">
<path d="M102.988 457.137C102.913 457 95.4969 443.463 79.2522 426.072C68.2869 414.396 56.182 403.844 43.118 394.575C43.1267 394.52 43.1267 394.465 43.118 394.411L40.7511 381.214C40.7391 381.147 40.714 381.083 40.6772 381.026C40.6404 380.969 40.5927 380.919 40.5369 380.881C40.481 380.842 40.418 380.814 40.3515 380.8C40.285 380.786 40.2164 380.784 40.1495 380.796C40.0826 380.808 40.0187 380.834 39.9615 380.87C39.9042 380.907 39.8548 380.955 39.816 381.011C39.7772 381.067 39.7499 381.13 39.7354 381.196C39.721 381.262 39.7197 381.331 39.7318 381.398L41.947 393.747C28.9752 384.623 15.1761 376.736 0.730999 370.19C0.606047 370.134 0.463701 370.129 0.335249 370.177C0.206797 370.225 0.10279 370.323 0.046084 370.448C-0.0106225 370.573 -0.015405 370.715 0.0328519 370.843C0.0811088 370.972 0.17843 371.076 0.303382 371.133C9.16424 375.15 17.7865 379.674 26.1274 384.682L16.6799 386.597C16.6133 386.61 16.55 386.636 16.4936 386.674C16.4372 386.712 16.3888 386.761 16.3511 386.817C16.3135 386.874 16.2874 386.937 16.2743 387.004C16.2612 387.071 16.2613 387.139 16.2746 387.206C16.288 387.272 16.3144 387.336 16.3523 387.392C16.3901 387.448 16.4387 387.497 16.4953 387.535C16.5518 387.572 16.6153 387.598 16.6819 387.611C16.7486 387.625 16.8171 387.624 16.8837 387.611L27.4301 385.475C41.7423 394.172 55.1338 404.301 67.3981 415.705L54.0697 419.457C54.0019 419.473 53.938 419.503 53.882 419.544C53.826 419.585 53.779 419.638 53.7438 419.698C53.7085 419.758 53.6857 419.825 53.6769 419.894C53.668 419.963 53.6732 420.033 53.6922 420.1C53.7111 420.167 53.7435 420.23 53.7872 420.284C53.8309 420.338 53.8851 420.383 53.9466 420.416C54.0081 420.449 54.0756 420.469 54.145 420.475C54.2144 420.481 54.2844 420.473 54.3506 420.451L67.9675 416.615C68.006 416.606 68.0429 416.59 68.0769 416.57C68.1271 416.543 68.1725 416.508 68.2111 416.466C72.0647 420.093 75.4857 423.556 78.4716 426.749C94.6318 444.05 102.006 457.495 102.09 457.629C102.123 457.689 102.166 457.742 102.219 457.785C102.272 457.828 102.333 457.86 102.398 457.879C102.463 457.899 102.531 457.905 102.599 457.898C102.666 457.891 102.732 457.871 102.791 457.838C102.91 457.771 102.997 457.66 103.034 457.528C103.071 457.397 103.054 457.256 102.988 457.137Z" fill="#DCDCDC"/>
</g>
<path d="M532.487 286.068L517.748 278.975C517.117 278.671 516.585 278.195 516.212 277.601C515.839 277.008 515.641 276.322 515.64 275.621V270.806H480.142V275.626C480.142 276.327 479.943 277.013 479.57 277.606C479.197 278.2 478.665 278.676 478.034 278.98L463.284 286.068C460.185 287.56 457.571 289.895 455.741 292.806C453.912 295.717 452.941 299.086 452.941 302.524V444.075C452.941 447.519 454.309 450.821 456.744 453.256C459.178 455.691 462.481 457.058 465.924 457.058H529.849C533.292 457.058 536.594 455.691 539.029 453.256C541.464 450.821 542.832 447.519 542.832 444.075V302.532C542.833 299.092 541.863 295.721 540.033 292.809C538.202 289.896 535.587 287.56 532.487 286.068Z" fill="#82D3F0"/>
<path d="M510.526 230.176H484.612V247.962H510.526V230.176Z" fill="#8FB9FC"/>
<path d="M517.594 245.051H477.238C476.822 245.051 476.485 245.388 476.485 245.804V273.585C476.485 274.001 476.822 274.338 477.238 274.338H517.594C518.01 274.338 518.347 274.001 518.347 273.585V245.804C518.347 245.388 518.01 245.051 517.594 245.051Z" fill="white"/>
<path d="M537.628 253.025H498.259V261.612H537.628V253.025Z" fill="#8FB9FC"/>
<path d="M549.283 251.031H532.417V274.03H549.283V251.031Z" fill="#689AE8"/>
<path d="M524.222 341.552H452.938V411.474H524.222V341.552Z" fill="white"/>
<path d="M507.458 346.868H452.938V364.45H507.458V346.868Z" fill="#8FB9FC"/>
<path d="M610.419 479.56H6.99124V474.339C6.99124 469.904 8.75334 465.65 11.8898 462.513C15.0263 459.377 19.2802 457.615 23.7158 457.615H593.694C598.13 457.615 602.384 459.377 605.52 462.513C608.657 465.65 610.419 469.904 610.419 474.339V479.56Z" fill="#5C86C5"/>
<path d="M464.651 0H152.756C146.727 0 141.84 4.88764 141.84 10.9168V446.452C141.84 452.481 146.727 457.369 152.756 457.369H464.651C470.68 457.369 475.568 452.481 475.568 446.452V10.9168C475.568 4.88764 470.68 0 464.651 0Z" fill="#404040"/>
<path d="M459.853 8.35815H157.557C153.493 8.35815 150.198 11.6529 150.198 15.7173V421.985C150.198 426.049 153.493 429.344 157.557 429.344H459.853C463.917 429.344 467.212 426.049 467.212 421.985V15.7173C467.212 11.6529 463.917 8.35815 459.853 8.35815Z" fill="#DCDCDC"/>
<path d="M443.737 31.8306H173.668V405.875H443.737V31.8306Z" fill="white"/>
<g style="mix-blend-mode:multiply">
<path d="M418.667 201.026H351.204C349.592 201.026 348.285 202.333 348.285 203.945V271.407C348.285 273.019 349.592 274.326 351.204 274.326H418.667C420.279 274.326 421.585 273.019 421.585 271.407V203.945C421.585 202.333 420.279 201.026 418.667 201.026Z" fill="#DCDCDC"/>
</g>
<path d="M414.477 196.575H347.014C345.402 196.575 344.096 197.882 344.096 199.494V266.956C344.096 268.568 345.402 269.875 347.014 269.875H414.477C416.089 269.875 417.396 268.568 417.396 266.956V199.494C417.396 197.882 416.089 196.575 414.477 196.575Z" fill="#ADC9FF"/>
<g style="mix-blend-mode:multiply">
<path d="M418.667 308.737H351.204C349.592 308.737 348.285 310.044 348.285 311.656V379.118C348.285 380.73 349.592 382.037 351.204 382.037H418.667C420.279 382.037 421.585 380.73 421.585 379.118V311.656C421.585 310.044 420.279 308.737 418.667 308.737Z" fill="#DCDCDC"/>
</g>
<path d="M414.477 304.287H347.014C345.402 304.287 344.096 305.594 344.096 307.206V374.669C344.096 376.281 345.402 377.587 347.014 377.587H414.477C416.089 377.587 417.396 376.281 417.396 374.669V307.206C417.396 305.594 416.089 304.287 414.477 304.287Z" fill="#ADC9FF"/>
<path d="M444.083 31.8235H173.486V53.1152H444.083V31.8235Z" fill="#3C63B0"/>
<path d="M404.316 43.7942H392.447V46.432H404.316V43.7942Z" fill="white"/>
<path d="M420.755 45.8378L412.363 37.4451L410.497 39.3103L418.89 47.703L420.755 45.8378Z" fill="white"/>
<path d="M412.362 47.7047L420.754 39.312L418.889 37.4468L410.496 45.8395L412.362 47.7047Z" fill="white"/>
<path d="M425.675 36.8848V47.7046H436.495V36.8848H425.675ZM434.397 45.6088H427.768V38.9806H434.397V45.6088Z" fill="white"/>
<path d="M215.009 43.1998C215.309 41.3566 214.057 39.6197 212.214 39.3205C210.37 39.0213 208.634 40.273 208.334 42.1163C208.035 43.9596 209.287 45.6964 211.13 45.9956C212.973 46.2948 214.71 45.0431 215.009 43.1998Z" fill="white"/>
<path d="M200.959 43.1998C201.258 41.3566 200.006 39.6198 198.163 39.3206C196.32 39.0214 194.583 40.273 194.284 42.1163C193.985 43.9596 195.236 45.6964 197.08 45.9956C198.923 46.2948 200.66 45.0431 200.959 43.1998Z" fill="white"/>
<path d="M185.91 45.0376C187.231 43.7171 187.231 41.5763 185.91 40.2558C184.59 38.9354 182.449 38.9354 181.128 40.2558C179.808 41.5763 179.808 43.7172 181.128 45.0376C182.449 46.3581 184.59 46.358 185.91 45.0376Z" fill="white"/>
<g style="mix-blend-mode:multiply">
<path d="M497.131 77.7251H197.925C194.379 77.7251 191.504 80.6002 191.504 84.1469V167.641C191.504 171.187 194.379 174.062 197.925 174.062H497.131C500.677 174.062 503.552 171.187 503.552 167.641V84.1469C503.552 80.6002 500.677 77.7251 497.131 77.7251Z" fill="#DCDCDC"/>
</g>
<path d="M492.593 71.4431H193.388C189.841 71.4431 186.966 74.3183 186.966 77.8649V161.359C186.966 164.905 189.841 167.78 193.388 167.78H492.593C496.14 167.78 499.015 164.905 499.015 161.359V77.8649C499.015 74.3183 496.14 71.4431 492.593 71.4431Z" fill="#ADC9FF"/>
<path d="M542.342 97.0979H346.786C332.69 97.0979 321.263 108.525 321.263 122.621V122.624C321.263 136.72 332.69 148.147 346.786 148.147H542.342C556.438 148.147 567.865 136.72 567.865 122.624V122.621C567.865 108.525 556.438 97.0979 542.342 97.0979Z" fill="#5C86C5"/>
<path d="M550.778 110H342.222C339.338 110 337 111.707 337 113.814V131.186C337 133.293 339.338 135 342.222 135H550.778C553.662 135 556 133.293 556 131.186V113.814C556 111.707 553.662 110 550.778 110Z" fill="white"/>
<path d="M548 131.301L544.659 126.714C545.875 125.774 546.682 124.404 546.915 122.887C547.147 121.369 546.786 119.821 545.907 118.561C545.028 117.302 543.698 116.428 542.191 116.121C540.685 115.814 539.118 116.096 537.815 116.91C536.511 117.724 535.571 119.007 535.188 120.494C534.806 121.981 535.01 123.558 535.76 124.898C536.509 126.239 537.746 127.24 539.214 127.696C540.682 128.151 542.269 128.026 543.648 127.345L547.037 132L548 131.301ZM536.185 121.973C536.185 121.023 536.467 120.094 536.995 119.304C537.524 118.514 538.275 117.899 539.154 117.535C540.033 117.171 541.001 117.076 541.934 117.261C542.867 117.447 543.724 117.904 544.397 118.576C545.07 119.248 545.528 120.104 545.714 121.035C545.899 121.967 545.804 122.933 545.44 123.811C545.075 124.688 544.459 125.438 543.667 125.966C542.876 126.494 541.946 126.775 540.994 126.775C539.719 126.774 538.497 126.267 537.596 125.367C536.694 124.467 536.187 123.246 536.185 121.973Z" fill="#5C86C5"/>
<g style="mix-blend-mode:multiply">
<path d="M292.495 82.6113H216.346C214.626 82.6113 213.233 84.0049 213.233 85.724V161.873C213.233 163.593 214.626 164.986 216.346 164.986H292.495C294.214 164.986 295.608 163.593 295.608 161.873V85.724C295.608 84.0049 294.214 82.6113 292.495 82.6113Z" fill="#DCDCDC"/>
</g>
<path d="M288.569 78.4241H212.42C210.701 78.4241 209.307 79.8177 209.307 81.5368V157.686C209.307 159.405 210.701 160.799 212.42 160.799H288.569C290.288 160.799 291.682 159.405 291.682 157.686V81.5368C291.682 79.8177 290.288 78.4241 288.569 78.4241Z" fill="white"/>
<path d="M250.916 141.58C248.13 141.583 245.371 141.036 242.797 139.969C240.224 138.903 237.886 137.338 235.919 135.365C235.732 135.177 235.627 134.923 235.627 134.658C235.627 134.393 235.733 134.139 235.92 133.952C236.108 133.764 236.362 133.659 236.627 133.659C236.892 133.66 237.147 133.765 237.334 133.953C240.641 137.256 245.039 139.241 249.704 139.536C254.369 139.83 258.981 138.414 262.677 135.552C266.373 132.69 268.898 128.579 269.781 123.988C270.663 119.398 269.842 114.643 267.471 110.615C267.337 110.386 267.298 110.114 267.364 109.857C267.43 109.6 267.596 109.38 267.824 109.245C268.053 109.11 268.326 109.072 268.582 109.138C268.839 109.204 269.059 109.37 269.194 109.598C271.096 112.82 272.112 116.487 272.139 120.228C272.165 123.969 271.202 127.651 269.345 130.899C267.489 134.147 264.806 136.846 261.569 138.722C258.333 140.598 254.657 141.584 250.916 141.58Z" fill="#5C86C5"/>
<path d="M264.687 147.172H241.951C241.687 147.172 241.434 147.067 241.248 146.881C241.061 146.694 240.956 146.441 240.956 146.177V141.961C240.956 141.697 241.061 141.444 241.248 141.258C241.434 141.071 241.687 140.966 241.951 140.966H264.687C264.951 140.966 265.204 141.071 265.39 141.258C265.577 141.444 265.681 141.697 265.681 141.961V146.172C265.682 146.303 265.657 146.433 265.607 146.554C265.557 146.676 265.484 146.786 265.392 146.879C265.299 146.972 265.19 147.045 265.069 147.096C264.948 147.146 264.818 147.172 264.687 147.172ZM242.95 145.183H263.685V142.97H242.96L242.95 145.183Z" fill="#5C86C5"/>
<path d="M270.099 153.306H236.536C236.272 153.306 236.019 153.201 235.833 153.015C235.646 152.828 235.541 152.575 235.541 152.311V146.173C235.541 145.909 235.646 145.656 235.833 145.47C236.019 145.283 236.272 145.178 236.536 145.178H270.099C270.363 145.178 270.616 145.283 270.802 145.47C270.989 145.656 271.094 145.909 271.094 146.173V152.311C271.094 152.575 270.989 152.828 270.802 153.015C270.616 153.201 270.363 153.306 270.099 153.306ZM237.53 151.317H269.105V147.172H237.53V151.317Z" fill="#5C86C5"/>
<path d="M245.258 135.204H228.257C227.993 135.204 227.74 135.1 227.554 134.913C227.367 134.727 227.262 134.474 227.262 134.21V130.354C227.262 130.09 227.367 129.837 227.554 129.651C227.74 129.464 227.993 129.359 228.257 129.359H245.258C245.521 129.359 245.774 129.464 245.961 129.651C246.147 129.837 246.252 130.09 246.252 130.354V134.202C246.253 134.334 246.228 134.464 246.178 134.585C246.129 134.707 246.056 134.817 245.963 134.91C245.871 135.004 245.761 135.078 245.64 135.128C245.519 135.178 245.389 135.204 245.258 135.204ZM229.256 133.203H244.258V131.353H229.256V133.203Z" fill="#5C86C5"/>
<path d="M249.718 117.587C249.584 117.587 249.451 117.56 249.327 117.507C249.204 117.455 249.092 117.378 248.999 117.281L241.812 109.84C241.72 109.746 241.648 109.634 241.6 109.512C241.551 109.39 241.528 109.26 241.53 109.128C241.532 108.997 241.56 108.868 241.613 108.747C241.666 108.627 241.742 108.518 241.836 108.428L264.851 86.196C264.945 86.1041 265.057 86.0317 265.179 85.9831C265.301 85.9345 265.432 85.9107 265.564 85.913C265.695 85.9153 265.825 85.9437 265.946 85.9966C266.066 86.0494 266.175 86.1257 266.266 86.2209L273.453 93.6621C273.545 93.7562 273.618 93.8676 273.666 93.9899C273.715 94.1123 273.739 94.243 273.736 94.3746C273.734 94.5062 273.706 94.636 273.653 94.7565C273.6 94.877 273.524 94.9859 273.428 95.0767L250.419 117.306C250.231 117.488 249.979 117.589 249.718 117.587ZM243.955 109.171L249.752 115.173L271.33 94.3308L265.532 88.3292L243.955 109.171Z" fill="#5C86C5"/>
<path d="M244.407 119.708H244.39C244.258 119.706 244.129 119.678 244.009 119.625C243.888 119.573 243.78 119.497 243.689 119.402L239.509 115.076C239.417 114.982 239.345 114.87 239.296 114.748C239.248 114.626 239.224 114.495 239.226 114.364C239.229 114.232 239.257 114.102 239.31 113.982C239.363 113.861 239.439 113.752 239.534 113.661L243.34 109.984C243.532 109.802 243.787 109.702 244.052 109.703C244.183 109.705 244.313 109.733 244.434 109.786C244.555 109.838 244.664 109.914 244.755 110.009L248.932 114.335C249.024 114.429 249.096 114.541 249.145 114.663C249.193 114.785 249.217 114.916 249.215 115.048C249.213 115.179 249.184 115.309 249.131 115.43C249.079 115.55 249.002 115.659 248.907 115.75L245.101 119.427C244.915 119.607 244.666 119.708 244.407 119.708ZM241.643 114.405L244.432 117.294L246.799 115.006L244.009 112.117L241.643 114.405Z" fill="#5C86C5"/>
<path d="M239.479 122.571H239.462C239.331 122.569 239.201 122.541 239.081 122.488C238.961 122.436 238.852 122.36 238.761 122.265L236.476 119.901C236.384 119.807 236.312 119.695 236.263 119.573C236.215 119.451 236.191 119.32 236.193 119.188C236.195 119.057 236.224 118.927 236.277 118.806C236.33 118.686 236.406 118.577 236.501 118.486L240.479 114.643C240.573 114.551 240.684 114.479 240.806 114.431C240.928 114.382 241.059 114.358 241.19 114.361C241.321 114.363 241.451 114.391 241.571 114.444C241.692 114.497 241.8 114.573 241.891 114.667L244.176 117.032C244.268 117.126 244.34 117.237 244.388 117.359C244.436 117.481 244.46 117.612 244.458 117.743C244.455 117.874 244.427 118.004 244.374 118.124C244.322 118.244 244.246 118.353 244.151 118.444L240.173 122.29C239.987 122.47 239.738 122.571 239.479 122.571ZM238.609 119.23L239.504 120.157L242.045 117.701L241.15 116.773L238.609 119.23Z" fill="#5C86C5"/>
<path d="M265.928 111.764C265 111.764 264.094 111.489 263.323 110.974C262.551 110.459 261.95 109.726 261.596 108.87C261.241 108.013 261.148 107.07 261.329 106.16C261.51 105.251 261.956 104.415 262.612 103.76C263.268 103.104 264.103 102.657 265.013 102.476C265.922 102.295 266.865 102.388 267.722 102.743C268.579 103.098 269.311 103.699 269.826 104.47C270.342 105.241 270.617 106.148 270.617 107.075C270.615 108.318 270.121 109.51 269.242 110.389C268.363 111.268 267.171 111.763 265.928 111.764ZM265.928 104.388C265.395 104.388 264.875 104.545 264.433 104.841C263.99 105.137 263.646 105.557 263.442 106.049C263.239 106.54 263.185 107.082 263.289 107.603C263.393 108.125 263.65 108.605 264.026 108.981C264.403 109.357 264.882 109.613 265.404 109.716C265.926 109.82 266.467 109.766 266.959 109.562C267.45 109.358 267.87 109.013 268.165 108.57C268.461 108.128 268.618 107.607 268.618 107.075C268.617 106.362 268.333 105.679 267.829 105.175C267.324 104.671 266.641 104.388 265.928 104.388Z" fill="#5C86C5"/>
<g style="mix-blend-mode:multiply">
<path d="M317.879 191.439H204.83C203.164 191.439 201.814 192.789 201.814 194.454V278.164C201.814 279.83 203.164 281.18 204.83 281.18H317.879C319.545 281.18 320.895 279.83 320.895 278.164V194.454C320.895 192.789 319.545 191.439 317.879 191.439Z" fill="#F3F3F3"/>
</g>
<path d="M309.252 200.931H196.202C194.537 200.931 193.187 202.281 193.187 203.947V287.657C193.187 289.322 194.537 290.673 196.202 290.673H309.252C310.917 290.673 312.268 289.322 312.268 287.657V203.947C312.268 202.281 310.917 200.931 309.252 200.931Z" fill="#E6F3FF"/>
<g style="mix-blend-mode:multiply">
<path d="M226.551 222.474C222.112 222.474 217.773 223.79 214.081 226.257C210.39 228.723 207.513 232.228 205.815 236.33C204.116 240.431 203.671 244.944 204.537 249.298C205.403 253.652 207.541 257.651 210.68 260.79C213.819 263.929 217.819 266.067 222.172 266.933C226.526 267.799 231.04 267.355 235.141 265.656C239.242 263.957 242.748 261.08 245.214 257.389C247.68 253.698 248.997 249.358 248.997 244.919C248.997 238.966 246.632 233.257 242.423 229.048C238.213 224.839 232.504 222.474 226.551 222.474ZM226.551 259.727C223.623 259.727 220.759 258.859 218.324 257.233C215.889 255.606 213.99 253.293 212.869 250.588C211.748 247.882 211.454 244.904 212.025 242.032C212.596 239.159 214.007 236.521 216.077 234.449C218.148 232.378 220.787 230.968 223.659 230.396C226.532 229.825 229.509 230.118 232.215 231.238C234.921 232.359 237.234 234.257 238.861 236.692C240.488 239.127 241.357 241.99 241.357 244.919C241.357 248.846 239.797 252.612 237.02 255.389C234.244 258.166 230.478 259.726 226.551 259.727Z" fill="#BFBFD9"/>
</g>
<path d="M227.926 221.179C223.487 221.179 219.147 222.495 215.456 224.961C211.765 227.428 208.888 230.933 207.189 235.035C205.491 239.136 205.046 243.649 205.912 248.003C206.778 252.357 208.916 256.356 212.055 259.495C215.194 262.634 219.193 264.772 223.547 265.638C227.901 266.504 232.414 266.06 236.516 264.361C240.617 262.662 244.122 259.785 246.589 256.094C249.055 252.403 250.371 248.063 250.371 243.624C250.372 240.676 249.791 237.757 248.664 235.034C247.536 232.311 245.882 229.836 243.798 227.752C241.714 225.668 239.239 224.014 236.516 222.887C233.793 221.759 230.874 221.178 227.926 221.179ZM227.926 258.429C224.997 258.429 222.134 257.561 219.699 255.934C217.264 254.306 215.366 251.994 214.245 249.288C213.125 246.582 212.832 243.604 213.403 240.732C213.975 237.859 215.385 235.221 217.456 233.15C219.528 231.079 222.166 229.669 225.039 229.098C227.911 228.527 230.889 228.821 233.595 229.942C236.3 231.063 238.613 232.961 240.24 235.397C241.866 237.832 242.734 240.695 242.734 243.624C242.735 245.569 242.353 247.495 241.609 249.293C240.865 251.09 239.774 252.723 238.399 254.099C237.024 255.474 235.391 256.565 233.594 257.31C231.797 258.054 229.871 258.437 227.926 258.437V258.429Z" fill="white"/>
<path d="M205.483 243.631C205.483 244.704 205.561 245.775 205.715 246.836H213.474C212.993 244.672 213.004 242.428 213.507 240.268C214.009 238.109 214.99 236.091 216.378 234.362C217.765 232.633 219.523 231.237 221.522 230.279C223.521 229.32 225.709 228.823 227.926 228.824H228.115V221.186H227.926C224.979 221.186 222.06 221.767 219.337 222.895C216.614 224.023 214.14 225.676 212.056 227.76C209.972 229.845 208.319 232.319 207.191 235.042C206.063 237.765 205.483 240.684 205.483 243.631Z" fill="#5C86C5"/>
<path d="M299.387 258.342H258.591C257.237 258.342 256.139 259.44 256.139 260.794V263.969C256.139 265.322 257.237 266.42 258.591 266.42H299.387C300.74 266.42 301.838 265.322 301.838 263.969V260.794C301.838 259.44 300.74 258.342 299.387 258.342Z" fill="#5C86C5"/>
<path d="M278.383 240.206H258.591C257.237 240.206 256.139 241.303 256.139 242.657V245.832C256.139 247.186 257.237 248.283 258.591 248.283H278.383C279.737 248.283 280.835 247.186 280.835 245.832V242.657C280.835 241.303 279.737 240.206 278.383 240.206Z" fill="#5C86C5"/>
<g style="mix-blend-mode:multiply">
<path d="M288.691 315.271H206.893C205.604 315.271 204.559 316.316 204.559 317.606V367.936C204.559 369.225 205.604 370.27 206.893 370.27H288.691C289.98 370.27 291.026 369.225 291.026 367.936V317.606C291.026 316.316 289.98 315.271 288.691 315.271Z" fill="#F3F3F3"/>
</g>
<path d="M294.007 319.524H212.209C210.919 319.524 209.874 320.57 209.874 321.859V372.189C209.874 373.479 210.919 374.524 212.209 374.524H294.007C295.296 374.524 296.341 373.479 296.341 372.189V321.859C296.341 320.57 295.296 319.524 294.007 319.524Z" fill="#E6F3FF"/>
<g style="mix-blend-mode:multiply">
<path d="M230.763 332.99C228.112 332.991 225.52 333.778 223.316 335.251C221.112 336.724 219.394 338.818 218.379 341.268C217.365 343.717 217.1 346.413 217.618 349.013C218.135 351.613 219.412 354.001 221.287 355.876C223.162 357.751 225.551 359.027 228.151 359.544C230.751 360.061 233.447 359.796 235.896 358.781C238.345 357.766 240.439 356.048 241.912 353.843C243.385 351.639 244.171 349.047 244.171 346.396H230.763V332.99Z" fill="#F3F3F3"/>
</g>
<path d="M228.749 331.916C226.098 331.917 223.506 332.703 221.302 334.176C219.098 335.65 217.38 337.744 216.366 340.193C215.352 342.643 215.086 345.338 215.604 347.938C216.122 350.539 217.399 352.927 219.273 354.802C221.148 356.676 223.537 357.953 226.137 358.47C228.738 358.987 231.433 358.721 233.882 357.706C236.332 356.692 238.425 354.973 239.898 352.769C241.371 350.564 242.157 347.973 242.157 345.322H228.749V331.916Z" fill="#5C86C5"/>
<path d="M238.286 332.276L231.66 343.934H245.068C245.069 341.565 244.442 339.238 243.25 337.19C242.059 335.142 240.346 333.447 238.286 332.276Z" fill="white"/>
<path d="M232.71 327.108V340.516L239.335 328.861C237.317 327.709 235.033 327.105 232.71 327.108Z" fill="#70A3F7"/>
<path d="M255.304 334.902C256.948 334.902 258.28 333.569 258.28 331.926C258.28 330.282 256.948 328.95 255.304 328.95C253.66 328.95 252.328 330.282 252.328 331.926C252.328 333.569 253.66 334.902 255.304 334.902Z" fill="#70A3F7"/>
<path d="M289.325 333.554H262.474C262.023 333.554 261.59 333.375 261.271 333.056C260.952 332.737 260.772 332.305 260.771 331.853C260.772 331.402 260.952 330.97 261.271 330.651C261.59 330.332 262.023 330.153 262.474 330.153H289.325C289.776 330.153 290.209 330.332 290.528 330.651C290.846 330.97 291.026 331.402 291.026 331.853C291.026 332.304 290.846 332.737 290.528 333.056C290.209 333.375 289.776 333.554 289.325 333.554Z" fill="#5C86C5"/>
<path d="M255.304 351.748C256.948 351.748 258.28 350.415 258.28 348.772C258.28 347.128 256.948 345.796 255.304 345.796C253.66 345.796 252.328 347.128 252.328 348.772C252.328 350.415 253.66 351.748 255.304 351.748Z" fill="#5C86C5"/>
<path d="M289.325 350.401H262.474C262.023 350.401 261.59 350.222 261.271 349.903C260.952 349.584 260.772 349.152 260.771 348.7C260.772 348.249 260.952 347.817 261.271 347.498C261.59 347.179 262.023 347 262.474 347H289.325C289.776 347 290.209 347.179 290.528 347.498C290.846 347.817 291.026 348.249 291.026 348.7C291.026 349.151 290.846 349.584 290.528 349.903C290.209 350.222 289.776 350.401 289.325 350.401Z" fill="#5C86C5"/>
<path d="M289.325 367.247H238.791C238.34 367.246 237.907 367.066 237.588 366.747C237.269 366.428 237.09 365.995 237.09 365.544C237.09 365.093 237.27 364.66 237.588 364.341C237.907 364.022 238.34 363.843 238.791 363.843H289.325C289.776 363.843 290.209 364.022 290.528 364.341C290.847 364.66 291.026 365.093 291.026 365.544C291.026 365.995 290.847 366.428 290.528 366.747C290.209 367.066 289.776 367.246 289.325 367.247Z" fill="#5C86C5"/>
<path d="M75.9034 289.824H109.064L125.272 319.713L159.77 362.538L153.97 384.692L117.614 384.471L95.7556 380.68L84.1576 372.202L75.9034 289.824Z" fill="#FF0606"/>
<path d="M142.374 389.948H142.275L103.91 389.279C98.9453 389.192 94.1675 387.37 90.4053 384.129C86.643 380.888 84.1336 376.433 83.3122 371.535L70.7297 296.418C70.5894 295.673 70.5993 294.907 70.7585 294.166C70.9178 293.424 71.2234 292.722 71.6574 292.101C72.0913 291.479 72.6449 290.95 73.2858 290.545C73.9266 290.14 74.6419 289.866 75.3897 289.741C76.1374 289.616 76.9028 289.641 77.6407 289.815C78.3787 289.989 79.0745 290.308 79.6875 290.755C80.3004 291.201 80.8182 291.765 81.2105 292.414C81.6028 293.063 81.8618 293.783 81.9722 294.533L94.5572 369.653C94.9379 371.924 96.1016 373.99 97.8463 375.493C99.5911 376.996 101.807 377.84 104.109 377.88L142.471 378.549C143.964 378.59 145.38 379.215 146.417 380.29C147.454 381.365 148.027 382.803 148.014 384.296C148.002 385.789 147.404 387.218 146.349 388.274C145.294 389.331 143.867 389.932 142.374 389.948Z" fill="#5C86C5"/>
<path d="M166.44 444.742C167.519 442.579 168.678 438.454 168.397 432.525C168.091 430.307 167.711 427.51 167.283 424.305C167.072 422.712 166.848 421.016 166.617 419.241L177.235 422.085C177.056 423.997 176.885 425.79 176.738 427.428C176.391 430.919 176.525 434.44 177.136 437.895C177.325 438.934 177.539 439.824 177.772 440.296C178.618 442.007 184.714 447.917 187.498 453.013C187.747 453.632 194.057 454.629 193.112 456.074C192.54 456.39 181.556 457.252 180.326 456.074C179.095 454.895 176.174 451.944 172.904 451.283C172.701 451.32 172.701 456.616 172.701 456.616L167.944 456.636C167.944 456.636 167.393 451.934 167.181 450.515C166.97 449.095 165.346 446.925 166.44 444.742Z" fill="#FF8762"/>
<path d="M187.518 453.07C185.529 453.301 183.351 453.739 182.588 453.403C181.559 452.953 174.776 444.535 167.323 442.464C167.088 443.247 166.789 444.009 166.43 444.744C165.336 446.932 166.955 449.092 167.164 450.512C167.373 451.931 167.927 456.633 167.927 456.633L172.683 456.613C172.683 456.613 172.683 451.317 172.887 451.28C176.156 451.941 179.08 454.887 180.308 456.071C181.536 457.254 192.523 456.391 193.095 456.071C194.022 454.671 188.11 453.734 187.518 453.07Z" fill="#303030"/>
<path d="M130.928 332.493L133.165 340.167C154.924 343.524 199.412 346.002 201.237 358.859C203.062 371.715 186.434 406.648 186.434 406.648L185.422 434.493H165.759L154.002 377.286C154.002 377.286 105.464 380.006 97.3567 365.484C90.8404 353.814 99.2685 339.364 99.2685 339.364L125.418 321.794L130.928 332.493Z" fill="#4C7CDE"/>
<g style="mix-blend-mode:multiply">
<path d="M185.012 405.196C185.049 405.196 185.085 405.188 185.119 405.173C185.153 405.158 185.183 405.136 185.208 405.109C185.233 405.082 185.252 405.051 185.265 405.016C185.277 404.981 185.283 404.945 185.281 404.908C185.238 403.19 184.229 362.76 179.955 355.637C175.649 348.459 133.543 344.528 131.753 344.364C131.717 344.36 131.68 344.363 131.645 344.373C131.61 344.383 131.577 344.4 131.549 344.423C131.52 344.446 131.497 344.475 131.479 344.507C131.462 344.539 131.452 344.575 131.448 344.611C131.445 344.647 131.449 344.684 131.46 344.719C131.471 344.754 131.489 344.786 131.513 344.814C131.537 344.842 131.566 344.864 131.599 344.881C131.631 344.897 131.667 344.906 131.703 344.909C132.139 344.949 175.321 348.976 179.485 355.918C183.685 362.916 184.721 404.5 184.731 404.92C184.731 404.957 184.738 404.994 184.752 405.027C184.766 405.061 184.787 405.092 184.813 405.118C184.839 405.144 184.87 405.164 184.905 405.177C184.939 405.191 184.975 405.197 185.012 405.196Z" fill="#E0C9C0"/>
</g>
<g style="mix-blend-mode:multiply">
<path d="M151.685 377.132C152.284 377.132 153.905 376.16 154.591 375.732C154.653 375.694 154.697 375.632 154.713 375.561C154.729 375.49 154.717 375.416 154.678 375.354C154.64 375.293 154.578 375.249 154.507 375.232C154.436 375.216 154.362 375.229 154.3 375.267C153.373 375.846 152.244 376.453 151.814 376.567C151.904 375.89 152.045 375.22 152.234 374.564C152.505 373.499 152.784 372.398 152.784 371.714C152.784 371.678 152.777 371.643 152.763 371.61C152.749 371.577 152.729 371.546 152.704 371.521C152.678 371.496 152.648 371.475 152.615 371.462C152.582 371.448 152.546 371.441 152.51 371.441C152.474 371.441 152.439 371.448 152.406 371.462C152.372 371.475 152.342 371.496 152.317 371.521C152.291 371.546 152.271 371.577 152.258 371.61C152.244 371.643 152.237 371.678 152.237 371.714C152.237 372.331 151.953 373.455 151.705 374.429C151.297 376.035 151.163 376.667 151.359 376.963C151.387 377.006 151.423 377.043 151.466 377.071C151.509 377.1 151.557 377.119 151.608 377.127L151.685 377.132Z" fill="#E0C9C0"/>
</g>
<g style="mix-blend-mode:multiply">
<path d="M105.989 353.884C106.018 353.883 106.048 353.878 106.076 353.869C107.167 353.506 108.455 352.031 109.211 350.284C109.77 348.974 110.042 347.56 110.009 346.137C109.977 344.714 109.64 343.314 109.022 342.032C109.007 341.999 108.986 341.97 108.959 341.945C108.933 341.921 108.902 341.902 108.868 341.89C108.834 341.877 108.799 341.871 108.763 341.873C108.727 341.874 108.692 341.883 108.659 341.898C108.626 341.913 108.597 341.934 108.572 341.96C108.548 341.987 108.529 342.018 108.517 342.051C108.504 342.085 108.498 342.121 108.5 342.157C108.501 342.193 108.51 342.228 108.525 342.261C109.111 343.473 109.43 344.797 109.462 346.143C109.494 347.489 109.237 348.826 108.709 350.065C107.93 351.867 106.707 353.08 105.902 353.349C105.842 353.371 105.791 353.414 105.759 353.469C105.727 353.524 105.715 353.589 105.725 353.652C105.736 353.715 105.768 353.773 105.816 353.815C105.864 353.857 105.925 353.881 105.989 353.884Z" fill="#E0C9C0"/>
</g>
<g style="mix-blend-mode:multiply">
<path d="M169.73 433.907H169.757C169.829 433.9 169.896 433.865 169.942 433.809C169.989 433.753 170.012 433.681 170.005 433.609C169.434 427.642 164.332 375.241 161.277 373.823C160.431 373.431 159.969 373.048 159.867 372.653C159.735 372.155 160.185 371.529 160.754 370.751C161.028 370.38 161.336 369.957 161.612 369.507C161.654 369.44 161.678 369.362 161.681 369.282C161.684 369.203 161.666 369.123 161.63 369.053C160.936 367.62 149.246 366.022 131.492 363.749C124.048 362.795 117.619 361.972 114.723 361.385C106.652 359.752 101.23 353.143 101.23 344.941C101.23 344.869 101.201 344.799 101.15 344.748C101.099 344.697 101.029 344.668 100.957 344.668C100.884 344.668 100.815 344.697 100.763 344.748C100.712 344.799 100.683 344.869 100.683 344.941C100.683 353.278 106.401 360.261 114.606 361.922C117.522 362.514 123.959 363.337 131.415 364.291C142.911 365.766 160.255 367.983 161.112 369.264C160.864 369.689 160.575 370.069 160.307 370.44C159.678 371.298 159.133 372.041 159.33 372.802C159.476 373.373 160.021 373.858 161.04 374.333C163.136 375.305 167.218 410.353 169.451 433.673C169.461 433.74 169.495 433.8 169.546 433.843C169.598 433.886 169.663 433.909 169.73 433.907Z" fill="#E0C9C0"/>
</g>
<path d="M133.65 340.163C133.01 338.335 132.504 336.463 132.136 334.562L100.184 334.196C98.7664 339.797 98.5773 340.528 98.5773 340.528L133.65 340.163Z" fill="#303030"/>
<path d="M134.092 280.35C150.233 287.687 147.401 324.723 193.142 288.306L198 295.187C190.713 309.359 173.509 328.378 152.866 327.57C132.223 326.762 121.495 314.212 121.495 314.212L134.092 280.35Z" fill="#F0F4FF"/>
<path d="M126.89 279.26L134.1 280.349C135.012 290.215 143.968 300.841 144.423 306.305C144.878 311.77 137.745 319.967 134.861 325.128C131.977 330.289 131.977 334.842 131.977 334.842H101.76C101.76 333.477 94.4751 299.627 95.3851 291.276C96.295 282.925 107.035 279.798 107.035 279.798C107.035 279.798 117.89 280.653 126.89 279.26Z" fill="#F3F3F3"/>
<path d="M116.766 268.64C109.536 269.9 105.33 263.17 107.436 257.88C106.846 247.037 111.471 236.362 127.693 242.162C135.763 243.171 138.881 253.847 132.233 256.619C123.407 264.438 116.766 268.64 116.766 268.64Z" fill="#303030"/>
<path d="M107.035 279.798C107.035 279.549 110.693 278.726 112.008 276.394C113.323 274.062 113.962 268.135 113.457 260.192C116.545 261.012 117.617 258.553 117.684 254.329C117.751 250.105 119.765 243.36 127.959 244.432C131.047 248.213 132.683 250.61 132.434 255.527C132.186 260.445 132.73 263.933 132.141 266.285C131.552 268.637 129.031 272.926 123.23 272.801C122.733 275.827 122.485 279.109 126.883 279.266C123.422 281.896 111.192 281.053 107.035 279.798Z" fill="#FF8762"/>
<g style="mix-blend-mode:multiply">
<path d="M122.45 265.142C125.57 264.195 128.988 264.428 129.297 265.43C127.601 266.37 123.805 265.709 122.45 265.142Z" fill="#FF0606"/>
</g>
<path d="M111.883 264.379C113.273 264.379 114.399 263.253 114.399 261.863C114.399 260.473 113.273 259.347 111.883 259.347C110.494 259.347 109.367 260.473 109.367 261.863C109.367 263.253 110.494 264.379 111.883 264.379Z" fill="#FF8762"/>
<g style="mix-blend-mode:multiply">
<path d="M112.435 263.173C112.468 263.173 112.499 263.164 112.526 263.146C112.553 263.128 112.574 263.103 112.587 263.073C112.604 263.033 112.604 262.988 112.589 262.948C112.573 262.908 112.542 262.875 112.502 262.857C112.413 262.832 112.333 262.781 112.27 262.712C112.208 262.643 112.166 262.558 112.149 262.467C112.148 262.374 112.17 262.283 112.213 262.202C112.257 262.12 112.32 262.052 112.398 262.002C112.485 261.943 112.587 261.909 112.693 261.904C112.798 261.9 112.903 261.925 112.995 261.977C113.02 261.992 113.05 262.001 113.08 262.001C113.11 262.001 113.139 261.992 113.165 261.977C113.191 261.961 113.212 261.939 113.225 261.912C113.239 261.885 113.245 261.855 113.243 261.825C113.225 261.528 113.113 261.243 112.923 261.013C112.734 260.783 112.476 260.619 112.187 260.545C111.891 260.442 111.57 260.434 111.27 260.523C110.969 260.612 110.705 260.794 110.514 261.042C110.488 261.077 110.477 261.12 110.483 261.163C110.489 261.206 110.511 261.245 110.546 261.271C110.563 261.284 110.583 261.293 110.604 261.299C110.625 261.304 110.646 261.305 110.668 261.302C110.689 261.298 110.709 261.291 110.728 261.28C110.746 261.268 110.762 261.254 110.775 261.236C110.928 261.046 111.138 260.908 111.373 260.841C111.608 260.774 111.859 260.782 112.09 260.863C112.27 260.912 112.435 261.003 112.572 261.13C112.708 261.257 112.812 261.416 112.873 261.592C112.647 261.554 112.415 261.604 112.224 261.731C112.096 261.812 111.991 261.925 111.921 262.06C111.85 262.194 111.817 262.345 111.824 262.497C111.842 262.648 111.903 262.791 112 262.909C112.097 263.027 112.226 263.115 112.371 263.163C112.392 263.17 112.413 263.173 112.435 263.173Z" fill="#FF0606"/>
</g>
<g style="mix-blend-mode:multiply">
<path d="M122.733 272.794C122.719 272.797 122.705 272.797 122.691 272.794C120.61 272.181 118.728 271.031 117.232 269.46C115.737 267.889 114.681 265.952 114.171 263.844C114.161 263.803 114.168 263.759 114.19 263.723C114.213 263.686 114.249 263.66 114.29 263.65C114.332 263.641 114.375 263.648 114.412 263.67C114.448 263.692 114.474 263.728 114.484 263.77C114.983 265.819 116.012 267.702 117.468 269.229C118.923 270.756 120.754 271.874 122.778 272.471C122.814 272.483 122.846 272.507 122.866 272.539C122.887 272.572 122.895 272.61 122.889 272.648C122.884 272.686 122.865 272.721 122.837 272.746C122.808 272.772 122.771 272.786 122.733 272.787V272.794Z" fill="#FF0606"/>
</g>
<path d="M118.651 254.68C118.615 254.68 118.581 254.668 118.553 254.647C118.525 254.625 118.504 254.595 118.495 254.561C118.486 254.527 118.488 254.49 118.501 254.458C118.514 254.425 118.538 254.397 118.569 254.379C120.67 253.178 123.173 253.084 124.202 253.385C124.243 253.398 124.277 253.426 124.297 253.464C124.316 253.501 124.321 253.545 124.309 253.586C124.297 253.627 124.268 253.661 124.231 253.681C124.193 253.701 124.149 253.706 124.108 253.693C123.263 253.444 120.819 253.444 118.73 254.645C118.708 254.664 118.68 254.676 118.651 254.68Z" fill="#303030"/>
<path d="M131.813 254.847C131.788 254.847 131.763 254.842 131.741 254.831C131.718 254.82 131.699 254.805 131.683 254.785C131.656 254.747 131.005 253.915 128.931 254.173C128.91 254.176 128.889 254.175 128.869 254.169C128.848 254.164 128.829 254.154 128.813 254.141C128.796 254.128 128.782 254.112 128.772 254.094C128.761 254.075 128.755 254.055 128.752 254.034C128.747 253.992 128.759 253.949 128.785 253.916C128.811 253.882 128.849 253.861 128.892 253.855C131.112 253.579 131.875 254.486 131.942 254.601C131.967 254.635 131.978 254.678 131.972 254.72C131.966 254.763 131.944 254.801 131.91 254.827C131.88 254.843 131.846 254.85 131.813 254.847Z" fill="#303030"/>
<path d="M128.071 263.421C128.047 263.422 128.023 263.417 128.002 263.406C127.98 263.396 127.961 263.381 127.947 263.362C127.933 263.345 127.923 263.326 127.917 263.306C127.911 263.286 127.909 263.264 127.911 263.243C127.914 263.222 127.92 263.202 127.931 263.183C127.941 263.165 127.955 263.149 127.972 263.136C128.804 262.469 129.734 261.644 129.936 261.373C129.707 261.343 129.477 261.33 129.247 261.333C128.663 261.333 128.004 261.308 127.613 261.084C126.753 260.587 127.584 256.957 128.344 255.247C128.352 255.225 128.363 255.206 128.378 255.189C128.394 255.172 128.412 255.159 128.433 255.15C128.454 255.141 128.476 255.136 128.498 255.136C128.521 255.137 128.543 255.141 128.564 255.151C128.584 255.16 128.603 255.173 128.618 255.19C128.633 255.207 128.644 255.227 128.651 255.248C128.658 255.27 128.661 255.292 128.658 255.315C128.656 255.337 128.649 255.359 128.638 255.379C127.755 257.368 127.253 260.51 127.773 260.803C128.091 260.982 128.735 260.995 129.264 261.005C129.913 261.005 130.304 261.025 130.304 261.323C130.304 261.621 129.152 262.611 128.185 263.382C128.153 263.408 128.113 263.422 128.071 263.421Z" fill="#303030"/>
<g style="mix-blend-mode:multiply">
<path d="M125.95 269.232C125.331 269.258 124.717 269.107 124.18 268.797C124.162 268.785 124.147 268.77 124.135 268.753C124.123 268.735 124.115 268.716 124.11 268.695C124.106 268.674 124.106 268.653 124.109 268.632C124.113 268.611 124.121 268.591 124.133 268.573C124.144 268.555 124.16 268.54 124.177 268.528C124.195 268.516 124.214 268.508 124.235 268.503C124.256 268.499 124.277 268.499 124.298 268.502C124.319 268.506 124.339 268.514 124.357 268.526C125.498 269.272 127.569 268.732 127.783 268.578C127.817 268.553 127.86 268.542 127.902 268.547C127.944 268.553 127.982 268.575 128.009 268.608C128.035 268.641 128.046 268.682 128.042 268.724C128.037 268.765 128.016 268.803 127.984 268.829C127.807 268.971 126.91 269.232 125.95 269.232Z" fill="#FF0606"/>
</g>
<path d="M123.176 258.016C123.176 258.974 122.738 259.757 122.199 259.757C121.659 259.757 121.222 258.979 121.222 258.016C121.222 257.054 121.659 256.276 122.199 256.276C122.738 256.276 123.176 257.059 123.176 258.016Z" fill="#303030"/>
<g style="mix-blend-mode:multiply">
<path d="M121.975 260.338C121.642 260.338 120.898 260.194 120.66 258.968C120.655 258.948 120.659 258.926 120.671 258.908C120.683 258.891 120.701 258.878 120.722 258.874C120.743 258.87 120.764 258.874 120.782 258.885C120.8 258.897 120.812 258.915 120.816 258.936C121.05 260.129 121.761 260.199 122.059 260.179C122.07 260.178 122.081 260.179 122.091 260.183C122.101 260.186 122.111 260.191 122.119 260.198C122.127 260.205 122.133 260.214 122.138 260.223C122.143 260.233 122.146 260.243 122.146 260.254C122.147 260.264 122.146 260.275 122.143 260.285C122.14 260.295 122.135 260.304 122.128 260.312C122.122 260.32 122.114 260.327 122.104 260.332C122.095 260.337 122.085 260.34 122.074 260.341L121.975 260.338Z" fill="#FF0606"/>
</g>
<path d="M130.585 258.223C130.585 259.18 130.147 259.963 129.607 259.963C129.068 259.963 128.63 259.187 128.63 258.223C128.63 257.258 129.068 256.482 129.607 256.482C130.147 256.482 130.585 257.271 130.585 258.223Z" fill="#303030"/>
<g style="mix-blend-mode:multiply">
<path d="M129.374 260.55C129.038 260.55 128.297 260.406 128.056 259.178C128.052 259.157 128.057 259.136 128.068 259.118C128.08 259.1 128.098 259.088 128.118 259.083C128.129 259.081 128.139 259.081 128.15 259.083C128.16 259.085 128.17 259.089 128.179 259.095C128.188 259.101 128.195 259.109 128.201 259.118C128.207 259.127 128.211 259.137 128.213 259.148C128.446 260.339 129.157 260.411 129.456 260.391C129.477 260.389 129.498 260.395 129.514 260.409C129.53 260.422 129.541 260.442 129.543 260.463C129.545 260.484 129.538 260.505 129.525 260.521C129.511 260.538 129.492 260.548 129.471 260.55H129.374Z" fill="#FF0606"/>
</g>
<path d="M120.888 261.89C120.506 262.407 120.249 262.867 120.319 262.919C120.389 262.972 120.757 262.594 121.142 262.079C121.527 261.564 121.781 261.1 121.711 261.047C121.642 260.995 121.264 261.373 120.888 261.89Z" fill="url(#paint0_linear_66_728)"/>
<path d="M121.866 262.017C121.483 262.534 121.227 262.994 121.296 263.046C121.366 263.099 121.736 262.721 122.119 262.204C122.502 261.686 122.758 261.226 122.689 261.174C122.619 261.122 122.251 261.5 121.866 262.017Z" fill="url(#paint1_linear_66_728)"/>
<path d="M122.959 262.122C122.574 262.639 122.32 263.099 122.39 263.151C122.46 263.203 122.828 262.825 123.213 262.31C123.598 261.796 123.852 261.331 123.782 261.279C123.713 261.227 123.345 261.604 122.959 262.122Z" fill="url(#paint2_linear_66_728)"/>
<path d="M111.655 252.469C123.24 251.656 127.967 244.432 127.967 244.432L121.883 243.149L113.927 248.029L111.655 252.469Z" fill="#303030"/>
<path d="M101.228 337.043H132.877V334.159H101.228V337.043Z" fill="#303030"/>
<g style="mix-blend-mode:multiply">
<path d="M129.185 265.701C127.812 269.229 125.383 268.811 122.472 265.296C125.289 265.93 127.338 266.283 129.185 265.701Z" fill="#FF0606"/>
</g>
<path d="M126.748 266.07C125.18 266.07 123.33 265.848 122.201 265.296C122.18 265.289 122.16 265.276 122.144 265.261C122.128 265.245 122.115 265.226 122.106 265.205C122.098 265.184 122.094 265.161 122.095 265.139C122.096 265.116 122.101 265.094 122.111 265.073C122.121 265.053 122.136 265.035 122.153 265.02C122.17 265.006 122.191 264.995 122.212 264.989C122.234 264.983 122.257 264.981 122.28 264.985C122.302 264.988 122.324 264.996 122.343 265.008C124.247 265.94 128.466 265.888 129.304 265.431C129.341 265.413 129.384 265.411 129.423 265.423C129.462 265.436 129.495 265.464 129.515 265.5C129.534 265.536 129.539 265.578 129.529 265.618C129.519 265.658 129.493 265.692 129.458 265.714C129.056 265.93 127.989 266.07 126.748 266.07Z" fill="#303030"/>
<path d="M116.334 253.069C123.382 253.014 128.113 248.268 128.113 243.87C128.113 243.819 128.093 243.769 128.057 243.733C128.02 243.696 127.971 243.676 127.919 243.676C127.868 243.676 127.819 243.696 127.782 243.733C127.746 243.769 127.726 243.819 127.726 243.87C127.726 248.096 123.148 252.631 116.331 252.681C116.283 252.686 116.239 252.709 116.207 252.745C116.175 252.781 116.157 252.828 116.157 252.876C116.157 252.924 116.175 252.971 116.207 253.007C116.239 253.043 116.283 253.066 116.331 253.071L116.334 253.069Z" fill="#303030"/>
<path d="M194.015 289.571C194.663 287.788 195.419 283.756 195.581 281.65C195.743 279.544 197.687 276.141 200.685 276.058C203.683 275.976 207.167 271.086 207.49 270.915C209.031 271.725 208.462 275.452 206.843 276.668C205.225 277.883 203.171 282.687 203.007 282.928C202.843 283.169 197.62 294.73 197.62 294.73L194.015 289.571Z" fill="#FF8762"/>
<path d="M113.961 250.969C115.593 247.115 113.792 242.668 109.938 241.036C106.084 239.404 101.637 241.205 100.005 245.059C98.3731 248.913 100.174 253.36 104.028 254.992C107.882 256.624 112.329 254.823 113.961 250.969Z" fill="#303030"/>
<path d="M107.035 279.798C118.246 295.866 114.743 320.738 112.416 328.509C110.088 336.281 101.924 345.803 102.699 354.545C103.475 363.286 147.975 356.683 160.021 366.593C172.067 376.503 172.452 398.849 172.452 398.849C163.32 399.821 146.805 400.987 146.805 400.987C145.248 391.077 136.31 380.777 121.739 380.777C107.167 380.777 92.981 376.503 92.2029 362.513C91.4247 348.523 99.1989 334.337 99.1989 333.755C99.1989 329.479 94.147 307.33 94.147 307.33L100.39 283.308C100.564 281.876 105.738 280.054 107.035 279.798Z" fill="white"/>
<path d="M100.395 283.308C105.708 286.192 108.82 303.876 102.443 310.708C96.0663 317.54 74.9436 329.581 103.686 342.939C103.888 343.747 99.435 351.236 99.435 351.236C85.0649 351.236 69.4815 347.593 68.8748 329.782C68.2682 311.971 85.8729 287.962 100.395 283.308Z" fill="#F0F4FF"/>
<path d="M103.485 343.849C104.701 343.648 107.331 342.129 108.457 342.027C109.584 341.925 113.927 343.546 116.756 342.736C116.756 344.558 115.036 346.075 112.91 346.279C110.785 346.482 109.678 347.745 109.678 347.86C108.684 350.781 106.491 355.107 102.316 357.004C99.7358 352.907 100.079 350.137 100.079 350.137L103.485 343.849Z" fill="#FF8762"/>
<path d="M126.89 279.261C126.89 279.261 137.084 294.7 135.54 307.912C133.996 321.123 127.678 337.249 133.65 340.163C137.675 340.555 142.339 341.334 142.339 341.334C138.453 339.002 136.509 330.258 138.453 323.652C140.398 317.046 146.031 312.188 144.865 304.61C143.699 297.032 134.093 280.35 134.093 280.35C131.082 279.154 126.89 279.261 126.89 279.261Z" fill="white"/>
<path d="M144.912 299.412H137.141V304.367H144.912V299.412Z" fill="#DCDEFF"/>
<path d="M141.414 297.08H140.151V301.063H141.414V297.08Z" fill="#46BDBD"/>
<path d="M113.825 260.162C115.232 260.891 120.966 263.27 124.764 261.763C128.563 260.257 130.01 260.356 130.836 261.084C131.661 261.813 132.536 261.763 132.576 262.201C132.964 264.824 132.825 274.005 122.957 273.14C113.089 272.275 113.582 263.765 113.582 263.765C115.329 262.698 113.825 260.162 113.825 260.162Z" fill="white"/>
<path d="M124.677 389.6H119.026V451.459H124.677V389.6Z" fill="#DCDCDC"/>
<path d="M146.685 450.865H98.2094V457.409H146.685V450.865Z" fill="#688BC2"/>
<path d="M476.793 400.619L476.503 457.781C476.501 458.263 476.89 458.655 477.372 458.658L483.063 458.687C483.544 458.689 483.937 458.3 483.94 457.818L484.229 400.657C484.231 400.175 483.843 399.782 483.361 399.78L477.67 399.751C477.188 399.748 476.795 400.137 476.793 400.619Z" fill="#5C86C5"/>
<path d="M341.485 417.61L341.376 439.382C341.367 441.172 342.02 442.903 343.209 444.241C344.398 445.58 346.039 446.433 347.818 446.636L348.606 446.684L476.475 447.323L476.657 411.024L348.787 410.378C347.833 410.373 346.887 410.557 346.004 410.918C345.12 411.279 344.316 411.81 343.638 412.482C342.96 413.153 342.421 413.952 342.052 414.832C341.682 415.712 341.49 416.656 341.485 417.61Z" fill="#BABABA"/>
<path d="M431.478 444.098L348.703 443.692L348.086 443.655C347.055 443.523 346.109 443.017 345.425 442.234C344.742 441.451 344.369 440.445 344.377 439.406L344.486 417.635C344.493 416.504 344.948 415.422 345.751 414.626C346.555 413.83 347.641 413.386 348.772 413.391L431.629 413.806L431.478 444.098Z" fill="#FF0606"/>
<path d="M341.229 439.746L336.538 439.724L335.924 439.697C333.793 439.488 332.194 438.138 332.209 436.534L332.291 420.374C332.291 418.634 334.218 417.214 336.57 417.227L341.341 417.251L341.229 439.746Z" fill="#8B8B8B"/>
<path d="M433.468 414.207L433.318 443.757L441.537 443.799L441.687 414.249L433.468 414.207Z" fill="#DCDCDC"/>
<path d="M441.677 416.891L441.555 441.158L446.644 441.184L446.767 416.917L441.677 416.891Z" fill="#5C86C5"/>
<path d="M446.72 425.426L446.684 432.668L475.55 432.814L475.587 425.572L446.72 425.426Z" fill="#DCDCDC"/>
<path d="M484.234 425.612L484.197 432.854L527.317 433.073L527.354 425.831L484.234 425.612Z" fill="#DCDCDC"/>
<path d="M527.42 413.532L527.259 445.374C527.256 445.849 527.639 446.237 528.114 446.239L533.733 446.267C534.208 446.27 534.595 445.887 534.598 445.412L534.759 413.569C534.761 413.094 534.378 412.707 533.903 412.704L528.284 412.676C527.809 412.673 527.422 413.057 527.42 413.532Z" fill="#5C86C5"/>
<path d="M332.321 430.407L284.763 430.168L274.217 426.202L332.341 426.493L332.321 430.407Z" fill="#5C86C5"/>
<path d="M365.442 427.858C365.442 427.923 365.424 427.987 365.39 428.042L362.208 433.531C362.185 433.577 362.152 433.617 362.113 433.65C362.074 433.683 362.028 433.707 361.979 433.722C361.931 433.736 361.879 433.741 361.828 433.735C361.778 433.729 361.729 433.712 361.685 433.687C361.64 433.661 361.602 433.627 361.571 433.586C361.541 433.545 361.519 433.498 361.507 433.449C361.496 433.399 361.494 433.347 361.503 433.297C361.512 433.247 361.531 433.199 361.559 433.156L364.741 427.667C364.782 427.594 364.847 427.538 364.923 427.506C365 427.474 365.085 427.469 365.166 427.491C365.246 427.513 365.317 427.561 365.367 427.627C365.417 427.694 365.443 427.775 365.442 427.858Z" fill="#FF0606"/>
<path d="M370.173 435.659C370.173 435.692 370.169 435.725 370.161 435.756C370.135 435.852 370.072 435.934 369.985 435.983C369.899 436.032 369.797 436.046 369.701 436.02L362.74 434.15C362.648 434.12 362.572 434.056 362.527 433.971C362.482 433.887 362.471 433.788 362.496 433.696C362.521 433.603 362.58 433.523 362.662 433.473C362.744 433.423 362.842 433.407 362.936 433.427L369.897 435.296C369.977 435.318 370.047 435.365 370.097 435.431C370.147 435.496 370.174 435.577 370.173 435.659Z" fill="#FF0606"/>
<path d="M361.817 431.876C362.224 431.878 362.621 432 362.958 432.228C363.295 432.456 363.557 432.778 363.711 433.155C363.865 433.531 363.903 433.945 363.822 434.344C363.74 434.742 363.542 435.108 363.253 435.394C362.964 435.68 362.596 435.873 362.197 435.951C361.798 436.028 361.385 435.985 361.01 435.827C360.635 435.669 360.315 435.404 360.091 435.064C359.867 434.725 359.749 434.326 359.751 433.919C359.753 433.65 359.807 433.383 359.912 433.134C360.016 432.885 360.169 432.659 360.361 432.469C360.553 432.28 360.78 432.129 361.03 432.028C361.28 431.926 361.547 431.874 361.817 431.876Z" fill="#DCDCDC"/>
<path d="M371.11 437.993C372.218 437.745 372.916 436.646 372.668 435.538C372.42 434.43 371.321 433.732 370.213 433.98C369.105 434.228 368.407 435.327 368.655 436.435C368.903 437.543 370.002 438.241 371.11 437.993Z" fill="#DCDCDC"/>
<path d="M365.442 426.023C365.703 426.024 365.958 426.103 366.174 426.249C366.391 426.396 366.559 426.603 366.657 426.845C366.756 427.086 366.78 427.352 366.728 427.608C366.676 427.864 366.549 428.098 366.363 428.282C366.177 428.465 365.941 428.59 365.685 428.639C365.429 428.689 365.163 428.661 364.923 428.56C364.682 428.458 364.477 428.288 364.333 428.07C364.189 427.852 364.113 427.597 364.115 427.335C364.115 427.162 364.151 426.991 364.218 426.831C364.285 426.671 364.383 426.526 364.506 426.404C364.63 426.282 364.776 426.186 364.936 426.12C365.097 426.055 365.269 426.022 365.442 426.023Z" fill="#DCDCDC"/>
<path d="M410.882 424.377C410.823 424.349 410.773 424.306 410.735 424.253L407.121 419.032C407.068 418.95 407.049 418.851 407.068 418.756C407.087 418.66 407.143 418.576 407.223 418.521C407.302 418.465 407.401 418.443 407.497 418.458C407.593 418.474 407.679 418.526 407.737 418.604L411.352 423.825C411.399 423.893 411.422 423.975 411.417 424.057C411.413 424.14 411.382 424.218 411.328 424.281C411.275 424.344 411.202 424.387 411.122 424.405C411.041 424.422 410.957 424.412 410.882 424.377Z" fill="#FF0606"/>
<path d="M401.808 425.344C401.78 425.329 401.753 425.311 401.728 425.291C401.69 425.26 401.659 425.221 401.637 425.177C401.614 425.133 401.6 425.085 401.596 425.036C401.592 424.987 401.597 424.937 401.612 424.89C401.627 424.843 401.651 424.8 401.683 424.762L406.335 419.255C406.399 419.179 406.49 419.132 406.589 419.123C406.688 419.115 406.786 419.146 406.862 419.21C406.938 419.274 406.985 419.366 406.994 419.464C407.002 419.563 406.971 419.661 406.907 419.737L402.255 425.247C402.201 425.31 402.129 425.353 402.048 425.371C401.967 425.388 401.882 425.379 401.808 425.344Z" fill="#FF0606"/>
<path d="M408.789 419.387C408.615 419.755 408.336 420.063 407.987 420.272C407.638 420.482 407.234 420.582 406.828 420.562C406.422 420.542 406.03 420.402 405.704 420.159C405.377 419.916 405.13 419.582 404.993 419.199C404.857 418.816 404.837 418.4 404.936 418.006C405.036 417.611 405.25 417.255 405.552 416.982C405.854 416.71 406.231 416.533 406.633 416.474C407.036 416.415 407.447 416.478 407.814 416.653C408.306 416.887 408.684 417.306 408.867 417.819C409.049 418.331 409.021 418.895 408.789 419.387Z" fill="#DCDCDC"/>
<path d="M403.247 426.587C403.073 426.955 402.794 427.263 402.444 427.472C402.095 427.681 401.692 427.782 401.285 427.761C400.879 427.741 400.488 427.6 400.161 427.357C399.835 427.114 399.588 426.78 399.451 426.396C399.315 426.013 399.296 425.598 399.395 425.203C399.495 424.809 399.71 424.452 400.012 424.18C400.315 423.908 400.691 423.731 401.094 423.673C401.497 423.615 401.908 423.677 402.275 423.852C402.766 424.086 403.145 424.506 403.327 425.019C403.509 425.531 403.48 426.096 403.247 426.587Z" fill="#DCDCDC"/>
<path d="M412.543 425.158C412.431 425.393 412.251 425.59 412.027 425.724C411.803 425.858 411.544 425.922 411.283 425.909C411.023 425.895 410.772 425.805 410.563 425.649C410.353 425.493 410.195 425.279 410.107 425.033C410.02 424.787 410.007 424.521 410.071 424.268C410.135 424.014 410.272 423.786 410.466 423.611C410.659 423.436 410.9 423.322 411.159 423.284C411.417 423.246 411.681 423.285 411.916 423.397C412.073 423.472 412.214 423.576 412.33 423.705C412.447 423.834 412.536 423.984 412.595 424.148C412.653 424.311 412.678 424.484 412.669 424.658C412.66 424.831 412.618 425.001 412.543 425.158Z" fill="#DCDCDC"/>
<path d="M389.25 435.08C389.216 435.084 389.182 435.08 389.15 435.067L386.082 433.809C386.037 433.789 386 433.752 385.98 433.706C385.96 433.66 385.959 433.608 385.976 433.561C385.995 433.514 386.032 433.478 386.079 433.458C386.125 433.438 386.177 433.436 386.224 433.454L389.292 434.712C389.332 434.729 389.365 434.758 389.386 434.795C389.407 434.833 389.416 434.876 389.41 434.918C389.405 434.961 389.385 435.001 389.355 435.031C389.325 435.062 389.285 435.081 389.242 435.087L389.25 435.08Z" fill="#FF0606"/>
<path d="M385.548 438.084H385.496C385.444 438.077 385.398 438.05 385.366 438.009C385.334 437.968 385.32 437.916 385.327 437.865L385.801 434.136C385.805 434.11 385.813 434.085 385.825 434.063C385.838 434.04 385.855 434.02 385.875 434.004C385.896 433.989 385.919 433.977 385.944 433.97C385.969 433.963 385.995 433.961 386.02 433.964C386.072 433.972 386.118 433.999 386.15 434.04C386.182 434.082 386.196 434.134 386.189 434.185L385.717 437.915C385.711 437.957 385.691 437.997 385.66 438.027C385.63 438.057 385.59 438.077 385.548 438.084Z" fill="#FF0606"/>
<path d="M386.91 433.499C386.938 433.71 386.903 433.924 386.81 434.115C386.716 434.305 386.568 434.464 386.384 434.571C386.201 434.677 385.989 434.727 385.777 434.713C385.565 434.7 385.362 434.623 385.193 434.494C385.024 434.365 384.898 434.189 384.829 433.988C384.761 433.787 384.753 433.57 384.808 433.365C384.863 433.159 384.977 432.975 385.137 432.835C385.296 432.694 385.494 432.605 385.704 432.577C385.986 432.54 386.272 432.616 386.498 432.789C386.724 432.962 386.872 433.217 386.91 433.499Z" fill="#DCDCDC"/>
<path d="M386.532 438.223C386.561 438.433 386.526 438.648 386.432 438.838C386.338 439.029 386.19 439.188 386.006 439.294C385.823 439.401 385.611 439.45 385.399 439.437C385.187 439.423 384.984 439.347 384.815 439.218C384.646 439.089 384.52 438.913 384.451 438.712C384.383 438.511 384.375 438.294 384.43 438.088C384.485 437.883 384.599 437.699 384.759 437.558C384.918 437.418 385.116 437.328 385.327 437.3C385.609 437.263 385.894 437.339 386.12 437.512C386.346 437.685 386.495 437.941 386.532 438.223Z" fill="#DCDCDC"/>
<path d="M390.2 434.951C390.217 435.086 390.194 435.223 390.134 435.345C390.073 435.467 389.978 435.568 389.86 435.636C389.742 435.704 389.607 435.735 389.471 435.726C389.335 435.717 389.205 435.668 389.097 435.585C388.989 435.502 388.908 435.389 388.864 435.26C388.821 435.131 388.816 434.992 388.852 434.861C388.887 434.729 388.96 434.611 389.062 434.522C389.165 434.432 389.291 434.374 389.426 434.357C389.516 434.345 389.607 434.351 389.695 434.374C389.782 434.398 389.864 434.438 389.936 434.493C390.008 434.548 390.068 434.617 390.114 434.696C390.159 434.774 390.188 434.861 390.2 434.951Z" fill="#FF0606"/>
<path d="M421.451 437.306C421.457 437.272 421.471 437.24 421.493 437.214L423.626 434.675C423.662 434.644 423.707 434.627 423.754 434.626C423.801 434.625 423.846 434.641 423.882 434.671C423.918 434.702 423.943 434.744 423.95 434.79C423.958 434.836 423.949 434.884 423.925 434.924L421.794 437.46C421.778 437.48 421.758 437.496 421.735 437.509C421.712 437.521 421.687 437.528 421.661 437.53C421.636 437.533 421.61 437.53 421.585 437.522C421.561 437.514 421.538 437.502 421.518 437.485C421.492 437.463 421.472 437.436 421.461 437.404C421.449 437.373 421.445 437.339 421.451 437.306Z" fill="#FF0606"/>
<path d="M419.728 432.862C419.731 432.846 419.736 432.83 419.743 432.815C419.765 432.771 419.802 432.736 419.848 432.719C419.895 432.701 419.946 432.702 419.992 432.721L423.405 434.309C423.45 434.331 423.484 434.369 423.502 434.415C423.52 434.461 423.52 434.512 423.502 434.558C423.48 434.602 423.442 434.636 423.396 434.653C423.35 434.67 423.299 434.67 423.253 434.653L419.837 433.064C419.801 433.046 419.77 433.017 419.751 432.981C419.731 432.945 419.723 432.903 419.728 432.862Z" fill="#FF0606"/>
<path d="M423.679 435.563C423.469 435.526 423.275 435.427 423.122 435.28C422.968 435.133 422.862 434.944 422.816 434.736C422.77 434.528 422.787 434.312 422.865 434.114C422.942 433.915 423.077 433.745 423.252 433.623C423.426 433.502 423.633 433.435 423.845 433.431C424.058 433.427 424.267 433.487 424.446 433.602C424.625 433.717 424.765 433.882 424.85 434.077C424.935 434.272 424.96 434.488 424.922 434.697C424.871 434.977 424.712 435.225 424.479 435.387C424.246 435.55 423.958 435.613 423.679 435.563Z" fill="#DCDCDC"/>
<path d="M419.288 433.76C419.079 433.723 418.885 433.625 418.731 433.478C418.578 433.33 418.471 433.141 418.426 432.933C418.38 432.725 418.397 432.509 418.474 432.311C418.552 432.113 418.686 431.942 418.861 431.821C419.035 431.699 419.242 431.632 419.455 431.628C419.667 431.624 419.876 431.684 420.055 431.799C420.234 431.914 420.375 432.079 420.46 432.275C420.544 432.47 420.569 432.685 420.531 432.895C420.48 433.174 420.321 433.422 420.088 433.584C419.855 433.746 419.567 433.809 419.288 433.76Z" fill="#DCDCDC"/>
<path d="M421.284 438.25C421.15 438.226 421.025 438.162 420.927 438.067C420.829 437.972 420.761 437.85 420.732 437.717C420.703 437.583 420.714 437.444 420.764 437.317C420.814 437.19 420.901 437.08 421.013 437.002C421.126 436.924 421.259 436.881 421.395 436.879C421.532 436.877 421.666 436.915 421.781 436.989C421.896 437.063 421.987 437.169 422.041 437.295C422.096 437.42 422.112 437.559 422.087 437.693C422.054 437.873 421.951 438.033 421.8 438.137C421.65 438.241 421.464 438.282 421.284 438.25Z" fill="#DCDCDC"/>
<path d="M355.657 421.408C355.623 421.412 355.589 421.407 355.557 421.394L352.489 420.136C352.465 420.126 352.444 420.111 352.426 420.093C352.408 420.075 352.393 420.054 352.384 420.03C352.364 419.982 352.364 419.929 352.384 419.881C352.403 419.833 352.441 419.795 352.489 419.775C352.537 419.755 352.591 419.755 352.638 419.775L355.706 421.033C355.753 421.052 355.79 421.089 355.81 421.136C355.83 421.182 355.831 421.235 355.813 421.282C355.8 421.314 355.779 421.343 355.751 421.366C355.724 421.388 355.691 421.403 355.657 421.408Z" fill="#FF0606"/>
<path d="M351.955 424.409H351.903C351.851 424.401 351.804 424.374 351.773 424.333C351.741 424.291 351.727 424.239 351.733 424.188L352.208 420.458C352.219 420.411 352.247 420.369 352.287 420.341C352.327 420.313 352.376 420.301 352.425 420.307C352.473 420.313 352.518 420.337 352.549 420.374C352.581 420.412 352.598 420.459 352.596 420.508L352.121 424.237C352.117 424.28 352.098 424.321 352.068 424.352C352.037 424.383 351.998 424.403 351.955 424.409Z" fill="#FF0606"/>
<path d="M353.32 419.825C353.347 420.036 353.312 420.25 353.218 420.44C353.124 420.631 352.976 420.789 352.792 420.895C352.608 421.001 352.396 421.051 352.185 421.037C351.973 421.023 351.769 420.946 351.601 420.817C351.432 420.688 351.306 420.512 351.238 420.311C351.169 420.109 351.162 419.893 351.217 419.687C351.272 419.482 351.386 419.298 351.546 419.158C351.706 419.018 351.903 418.928 352.114 418.9C352.254 418.881 352.396 418.89 352.532 418.927C352.669 418.963 352.797 419.026 352.909 419.112C353.021 419.198 353.115 419.305 353.185 419.428C353.256 419.55 353.301 419.685 353.32 419.825Z" fill="#DCDCDC"/>
<path d="M352.939 424.548C352.967 424.759 352.932 424.973 352.839 425.164C352.745 425.355 352.597 425.513 352.413 425.62C352.229 425.726 352.018 425.776 351.806 425.763C351.594 425.749 351.391 425.673 351.222 425.544C351.053 425.415 350.926 425.238 350.858 425.037C350.789 424.836 350.782 424.619 350.837 424.414C350.891 424.209 351.006 424.024 351.165 423.884C351.325 423.744 351.523 423.654 351.733 423.626C352.015 423.589 352.301 423.665 352.527 423.838C352.753 424.011 352.901 424.266 352.939 424.548Z" fill="#DCDCDC"/>
<path d="M356.606 421.277C356.624 421.412 356.602 421.549 356.542 421.671C356.482 421.793 356.387 421.895 356.269 421.963C356.151 422.031 356.016 422.063 355.88 422.055C355.744 422.046 355.614 421.997 355.506 421.915C355.398 421.832 355.316 421.72 355.272 421.591C355.228 421.462 355.223 421.323 355.258 421.192C355.293 421.06 355.365 420.942 355.467 420.851C355.569 420.761 355.696 420.703 355.831 420.685C356.012 420.661 356.195 420.71 356.341 420.821C356.486 420.931 356.582 421.095 356.606 421.277Z" fill="#DCDCDC"/>
<g style="mix-blend-mode:screen">
<path d="M402.553 416.592L351.258 415.914C351.058 415.912 350.864 415.989 350.72 416.128C350.576 416.268 350.492 416.459 350.488 416.659L350.421 421.632C350.418 421.833 350.495 422.027 350.635 422.171C350.774 422.315 350.966 422.399 351.166 422.403L402.461 423.081C402.662 423.083 402.856 423.006 403.001 422.867C403.145 422.727 403.229 422.536 403.235 422.335L403.299 417.363C403.302 417.162 403.225 416.968 403.085 416.824C402.946 416.679 402.754 416.596 402.553 416.592Z" fill="#543138"/>
</g>
<g style="mix-blend-mode:screen">
<path d="M422.889 416.813L409.075 416.63C408.653 416.624 408.307 416.961 408.302 417.383L408.236 422.355C408.23 422.776 408.567 423.122 408.989 423.128L422.803 423.311C423.225 423.317 423.571 422.98 423.577 422.558L423.643 417.586C423.648 417.165 423.311 416.819 422.889 416.813Z" fill="#543138"/>
</g>
<defs>
<linearGradient id="paint0_linear_66_728" x1="121.723" y1="261.983" x2="120.308" y2="261.983" gradientUnits="userSpaceOnUse">
<stop stop-color="#FF0606"/>
<stop offset="0.661458" stop-color="#5C86C5"/>
</linearGradient>
<linearGradient id="paint1_linear_66_728" x1="122.7" y1="262.11" x2="121.285" y2="262.11" gradientUnits="userSpaceOnUse">
<stop stop-color="#FF0606"/>
<stop offset="0.661458" stop-color="#5C86C5"/>
</linearGradient>
<linearGradient id="paint2_linear_66_728" x1="123.794" y1="262.215" x2="122.379" y2="262.215" gradientUnits="userSpaceOnUse">
<stop stop-color="#FF0606"/>
<stop offset="0.661458" stop-color="#5C86C5"/>
</linearGradient>
</defs>
</svg>
